<svg width="358" height="191" viewBox="0 0 358 191" fill="none" xmlns="http://www.w3.org/2000/svg">
<path d="M56.1995 71.5577C52.1056 63.1643 45.4666 56.3585 37.2789 52.1618C36.9671 52.002 36.9671 51.5458 37.2789 51.386C45.4666 47.1893 52.1056 40.3835 56.1995 31.9902C56.3554 31.6705 56.8004 31.6705 56.9563 31.9902C61.0502 40.3835 67.6892 47.1893 75.8769 51.386C76.1887 51.5458 76.1887 52.002 75.8769 52.1618C67.6892 56.3585 61.0502 63.1643 56.9563 71.5577C56.8004 71.8774 56.3554 71.8774 56.1995 71.5577Z" stroke="#D9D9D9" stroke-width="2" stroke-linecap="round"/>
<path d="M147.815 119.261C143.721 110.868 140.021 106.934 131.833 102.738C131.521 102.578 131.521 102.122 131.833 101.962C140.021 97.7651 143.721 93.8315 147.815 85.4381C147.971 85.1184 148.416 85.1184 148.572 85.4381C152.666 93.8315 156.366 97.7651 164.554 101.962C164.866 102.122 164.866 102.578 164.554 102.738C156.366 106.934 152.666 110.868 148.572 119.261C148.416 119.581 147.971 119.581 147.815 119.261Z" stroke="#D9D9D9" stroke-width="2" stroke-linecap="round"/>
<path d="M75.12 159.48C71.0262 151.087 71.7333 151.462 63.5457 147.265C63.2338 147.105 63.2338 146.649 63.5457 146.489C71.7333 142.292 71.0262 142.667 75.12 134.274C75.2759 133.954 75.7209 133.954 75.8769 134.274C79.9707 142.667 79.2636 142.292 87.4513 146.489C87.7631 146.649 87.7631 147.105 87.4513 147.265C79.2636 151.462 79.9707 151.087 75.8769 159.48C75.7209 159.8 75.2759 159.8 75.12 159.48Z" stroke="#D9D9D9" stroke-width="2" stroke-linecap="round"/>
<path d="M207 68.5577C202.906 60.1643 206.613 63.539 198.426 59.3423C198.114 59.1825 198.114 58.7263 198.426 58.5665C206.613 54.3698 202.906 57.7444 207 49.3511C207.156 49.0314 207.601 49.0314 207.757 49.3511C211.851 57.7444 208.144 54.3698 216.331 58.5665C216.643 58.7263 216.643 59.1825 216.331 59.3423C208.144 63.539 211.851 60.1643 207.757 68.5577C207.601 68.8774 207.156 68.8774 207 68.5577Z" stroke="#D9D9D9" stroke-width="2" stroke-linecap="round"/>
<path d="M266.743 153.265C262.649 144.871 254.01 136.066 245.823 131.869C245.511 131.709 245.511 131.253 245.823 131.093C254.01 126.897 262.649 118.091 266.743 109.697C266.899 109.378 267.344 109.378 267.5 109.697C271.594 118.091 280.233 126.897 288.421 131.093C288.733 131.253 288.733 131.709 288.421 131.869C280.233 136.066 271.594 144.871 267.5 153.265C267.344 153.585 266.899 153.585 266.743 153.265Z" stroke="#D9D9D9" stroke-width="2" stroke-linecap="round"/>
<path d="M275.761 47.5141C271.667 39.1207 268.967 36.1871 260.779 31.9904C260.467 31.8306 260.467 31.3744 260.779 31.2146C268.967 27.0179 271.667 24.0843 275.761 15.6909C275.917 15.3713 276.362 15.3713 276.518 15.6909C280.612 24.0843 283.312 27.0179 291.5 31.2146C291.812 31.3744 291.812 31.8306 291.5 31.9904C283.312 36.1871 280.612 39.1207 276.518 47.5141C276.362 47.8337 275.917 47.8337 275.761 47.5141Z" stroke="#D9D9D9" stroke-width="2" stroke-linecap="round"/>
<path d="M331 93.5577C326.906 85.1643 330.613 88.539 322.426 84.3423C322.114 84.1825 322.114 83.7263 322.426 83.5665C330.613 79.3698 326.906 82.7444 331 74.3511C331.156 74.0314 331.601 74.0314 331.757 74.3511C335.851 82.7444 332.144 79.3698 340.331 83.5665C340.643 83.7263 340.643 84.1825 340.331 84.3423C332.144 88.539 335.851 85.1643 331.757 93.5577C331.601 93.8774 331.156 93.8774 331 93.5577Z" stroke="#D9D9D9" stroke-width="2" stroke-linecap="round"/>
<path d="M15.0002 130.558C10.9063 122.164 15.6134 126.539 7.42577 122.342C7.11394 122.182 7.11394 121.726 7.42577 121.566C15.6135 117.37 10.9063 121.744 15.0002 113.351C15.1561 113.031 15.6011 113.031 15.757 113.351C19.8508 121.744 15.1437 117.37 23.3314 121.566C23.6432 121.726 23.6432 122.182 23.3314 122.342C15.1437 126.539 19.8508 122.164 15.757 130.558C15.6011 130.877 15.1561 130.877 15.0002 130.558Z" stroke="#D9D9D9" stroke-width="2" stroke-linecap="round"/>
</svg>
